<svg xmlns="http://www.w3.org/2000/svg" viewBox="0 0 74.92 90.16"><defs><style>.cls-1{fill:#ffffff;}</style></defs><title>Asset 1</title><g id="Layer_2"><g id="Laag_1"><path class="cls-1" d="M46.47,89.53,25.89,74.45a3.28,3.28,0,0,1-.71-4.59h0a3.28,3.28,0,0,1,4.59-.71L46.52,81.43a3.3,3.3,0,0,0,3.85,0L67,69.61a3.29,3.29,0,0,0,1.38-2.68V49.6A3.29,3.29,0,0,0,67,47L50.3,34.7a3.27,3.27,0,0,0-3.85,0L29.76,46.58a3.28,3.28,0,0,1-4.58-.77h0a3.28,3.28,0,0,1,.76-4.58L46.5,26.57a3.29,3.29,0,0,1,3.85,0l23.23,17a3.29,3.29,0,0,1,1.34,2.65v24A3.27,3.27,0,0,1,73.54,73L50.31,89.55A3.26,3.26,0,0,1,46.47,89.53Z"/><path class="cls-1" d="M24.61,63.59,1.38,47A3.28,3.28,0,0,1,0,44.35v-24a3.29,3.29,0,0,1,1.34-2.65L24.57.64a3.29,3.29,0,0,1,3.85,0L49,15.27a3.28,3.28,0,0,1,.77,4.58h0a3.28,3.28,0,0,1-4.58.77L28.47,8.71a3.29,3.29,0,0,0-3.85,0L7.91,21a3.29,3.29,0,0,0-1.34,2.65V41a3.27,3.27,0,0,0,1.37,2.67L24.55,55.49a3.29,3.29,0,0,0,3.85,0L45.15,43.19a3.28,3.28,0,0,1,4.59.71h0A3.28,3.28,0,0,1,49,48.49L28.45,63.57A3.26,3.26,0,0,1,24.61,63.59Z"/></g></g></svg>
